<?xml version="1.0" encoding="UTF-8"?>
<!DOCTYPE svg PUBLIC "-//W3C//DTD SVG 1.1//EN" "http://www.w3.org/Graphics/SVG/1.1/DTD/svg11.dtd">
<svg xmlns="http://www.w3.org/2000/svg" version="1.1" width="96px" height="96px" style="shape-rendering:geometricPrecision; text-rendering:geometricPrecision; image-rendering:optimizeQuality; fill-rule:evenodd; clip-rule:evenodd" xmlns:xlink="http://www.w3.org/1999/xlink">
<g><path style="opacity:0.989" fill="#fd7481" d="M 47.5,28.5 C 46.7142,30.7351 45.0476,31.7351 42.5,31.5C 38.0461,29.7732 33.7127,27.7732 29.5,25.5C 29.5858,24.5041 29.2524,23.6708 28.5,23C 24.4122,22.2889 20.9122,23.4555 18,26.5C 17.4209,27.9285 17.5876,29.2618 18.5,30.5C 17.8826,30.6107 17.3826,30.944 17,31.5C 16.3333,34.5 16.3333,37.5 17,40.5C 21.7359,44.9147 22.5692,49.9147 19.5,55.5C 8.30603,47.9146 5.4727,37.9146 11,25.5C 19.2673,16.6037 28.7673,15.1037 39.5,21C 42.0362,23.705 44.7029,26.205 47.5,28.5 Z"/></g>
<g><path style="opacity:0.99" fill="#fc3c4f" d="M 74.5,18.5 C 72.6848,23.5623 73.8514,27.8956 78,31.5C 78.6667,34.5 78.6667,37.5 78,40.5C 69.3639,50.137 60.3639,59.4703 51,68.5C 49.2814,71.4543 49.1147,74.4543 50.5,77.5C 46.2076,77.9651 42.2076,77.1318 38.5,75C 31.964,68.6315 25.6306,62.1315 19.5,55.5C 22.5692,49.9147 21.7359,44.9147 17,40.5C 16.3333,37.5 16.3333,34.5 17,31.5C 17.3826,30.944 17.8826,30.6107 18.5,30.5C 22.2222,28.7122 25.8889,27.0455 29.5,25.5C 33.7127,27.7732 38.0461,29.7732 42.5,31.5C 45.0476,31.7351 46.7142,30.7351 47.5,28.5C 50.9995,25.1691 54.6662,22.0024 58.5,19C 63.9275,17.3068 69.2608,17.1401 74.5,18.5 Z"/></g>
<g><path style="opacity:0.975" fill="#d83343" d="M 74.5,18.5 C 84.9018,23.1505 88.7351,31.1505 86,42.5C 85,44.5 84,46.5 83,48.5C 74.1667,57.3333 65.3333,66.1667 56.5,75C 54.5932,76.122 52.5932,76.9553 50.5,77.5C 49.1147,74.4543 49.2814,71.4543 51,68.5C 60.3639,59.4703 69.3639,50.137 78,40.5C 78.6667,37.5 78.6667,34.5 78,31.5C 73.8514,27.8956 72.6848,23.5623 74.5,18.5 Z"/></g>
<g><path style="opacity:1" fill="#fff2f3" d="M 29.5,25.5 C 25.8889,27.0455 22.2222,28.7122 18.5,30.5C 17.5876,29.2618 17.4209,27.9285 18,26.5C 20.9122,23.4555 24.4122,22.2889 28.5,23C 29.2524,23.6708 29.5858,24.5041 29.5,25.5 Z"/></g>
<g><path style="opacity:1" fill="#fff0f1" d="M 64.5,22.5 C 68.1378,21.7366 69.6378,23.0699 69,26.5C 65.2314,27.3696 61.7314,28.5362 58.5,30C 57.4829,28.9505 57.3162,27.7839 58,26.5C 60.0948,24.8753 62.2615,23.5419 64.5,22.5 Z"/></g>
<g><path style="opacity:0.252" fill="#000000" d="M 38.5,81.5 C 46.5533,81.2252 54.5533,81.7252 62.5,83C 66.9884,83.7333 67.9884,85.7333 65.5,89C 53.5,92.3333 41.5,92.3333 29.5,89C 27.9926,88.1627 27.4926,86.9961 28,85.5C 31.2841,83.3843 34.7841,82.0509 38.5,81.5 Z"/></g>
</svg>
