<svg width="16" height="16" viewBox="0 0 16 16" fill="none" xmlns="http://www.w3.org/2000/svg">
<path d="M3.14027 10.6036L6.28714 8.84445L6.33982 8.69111L6.28714 8.60638H6.13328L5.60673 8.57413L3.80855 8.5257L2.24927 8.46114L0.738548 8.38045L0.357852 8.2997L0.00146484 7.83166L0.0378972 7.59763L0.357852 7.38384L0.815537 7.42419L1.82802 7.49273L3.3468 7.59763L4.44846 7.66219L6.0806 7.83166H6.33982L6.37625 7.72675L6.28714 7.66219L6.21833 7.59763L4.64687 6.53647L2.94586 5.41479L2.05486 4.76918L1.57287 4.44233L1.3299 4.13572L1.2246 3.46596L1.66204 2.98577L2.24927 3.02618L2.39913 3.06652L2.99448 3.52243L4.26617 4.50297L5.92669 5.7214L6.16972 5.92311L6.26689 5.85451L6.27908 5.80613L6.16972 5.62453L5.26653 3.99851L4.30261 2.34422L3.87329 1.65827L3.75993 1.24675C3.71944 1.07723 3.69107 0.936031 3.69107 0.762521L4.18925 0.088716L4.46458 0L5.12886 0.0887782L5.40832 0.330833L5.82139 1.27097L6.48967 2.75181L7.52646 4.7652L7.83023 5.36237L7.99221 5.91514L8.05301 6.08461H8.15831V5.98774L8.2433 4.85398L8.40128 3.46191L8.55519 1.67041L8.60787 1.16613L8.85896 0.560872L9.35708 0.234023L9.7459 0.419611L10.0659 0.87558L10.0213 1.17005L9.83095 2.40075L9.45838 4.32946L9.21535 5.62061H9.35708L9.51912 5.45918L10.1752 4.59169L11.2768 3.2198L11.7629 2.67511L12.3298 2.0739L12.6944 1.78746H13.3829L13.8891 2.53796L13.6623 3.31262L12.9536 4.20837L12.3663 4.96691L11.5239 6.09668L10.9973 7.00053L11.046 7.07312L11.1716 7.06104L13.0751 6.65756L14.1038 6.47191L15.3309 6.2621L15.8858 6.52034L15.9465 6.78263L15.7278 7.31928L14.4156 7.64202L12.8766 7.9487L10.5843 8.4894L10.5559 8.50957L10.5883 8.54991L11.6211 8.64672L12.0626 8.67094H13.1439L15.1568 8.82023L15.6833 9.16725L15.9992 9.59091L15.9465 9.91365L15.1365 10.3252L14.043 10.067L11.4915 9.46179L10.6166 9.24389H10.4952V9.31654L11.2242 10.0266L12.5607 11.2291L14.2334 12.7785L14.3184 13.1618L14.1038 13.4643L13.8769 13.4321L12.4068 12.3306L11.8398 11.8343L10.5559 10.757H10.4709V10.8699L10.7665 11.3017L12.3298 13.6419L12.4108 14.3601L12.2975 14.5942L11.8925 14.7354L11.4469 14.6546L10.5316 13.3756L9.58798 11.9351L8.82653 10.644L8.73342 10.6965L8.28385 15.5181L8.07326 15.7642L7.5872 15.9498L7.18226 15.6432L6.96754 15.1469L7.1822 14.1664L7.44141 12.8874L7.65201 11.8706L7.84235 10.6077L7.95578 10.1881L7.94765 10.1598L7.85454 10.1719L6.89874 11.4792L5.44476 13.4361L4.29454 14.6627L4.01915 14.7717L3.54121 14.5255L3.58577 14.0857L3.85304 13.6944L5.44469 11.6769L6.40456 10.4261L7.02428 9.70391L7.02022 9.59894H6.98379L2.75545 12.3346L2.00212 12.4314L1.6781 12.1289L1.7186 11.6326L1.87251 11.4711L3.14421 10.5996L3.14027 10.6036Z" fill="#D97757"/>
</svg>
