<svg width="16" height="16" viewBox="0 0 16 16" fill="none" xmlns="http://www.w3.org/2000/svg">
<path d="M0 4C0 1.79087 1.79087 0 4 0H12C14.2091 0 16 1.79087 16 4V12C16 14.2091 14.2091 16 12 16H4C1.79087 16 0 14.2091 0 12V4Z" fill="#FFDD33"/>
<path d="M10.6372 3.05005H9.18475L10.3951 5.17667L7.73231 3.05005H6.27987L7.61131 5.6493L4.82744 3.05005H3.375L4.82744 6.35861L3.375 12.975H4.82744L7.61131 5.88592L6.27987 12.975H7.73231L10.3951 5.4133L9.18475 12.975H10.6372L13.3 4.70399L10.6372 3.05005Z" fill="black"/>
</svg>
