<svg width="16" height="16" viewBox="0 0 16 16" fill="none" xmlns="http://www.w3.org/2000/svg">
<path d="M14.9484 6.53558C15.1297 5.99781 15.1925 5.42814 15.1324 4.8646C15.0723 4.30107 14.8908 3.75664 14.5999 3.2677C13.7152 1.75133 11.9371 0.971329 10.2006 1.33785C9.71974 0.811199 9.10665 0.418395 8.42287 0.19889C7.73908 -0.0206147 7.00868 -0.0590926 6.30502 0.0873209C5.60136 0.233734 4.9492 0.559884 4.41406 1.03302C3.87891 1.50615 3.47961 2.1096 3.25626 2.78278C2.69242 2.89664 2.15974 3.12769 1.69384 3.4605C1.22794 3.7933 0.839534 4.22018 0.554585 4.71262C-0.339724 6.22659 -0.136677 8.13625 1.05661 9.43508C0.874609 9.97259 0.811263 10.5422 0.87081 11.1057C0.930356 11.6693 1.11142 12.2138 1.4019 12.7029C2.28771 14.2198 4.06695 14.9998 5.80445 14.6327C6.18646 15.0563 6.65585 15.3948 7.18127 15.6255C7.70669 15.8563 8.27605 15.974 8.85135 15.9708C10.6313 15.9724 12.2082 14.8409 12.7519 13.172C13.3157 13.0579 13.8483 12.8268 14.3142 12.494C14.78 12.1612 15.1685 11.7345 15.4536 11.2422C16.3371 9.7309 16.1332 7.83158 14.9484 6.53558ZM8.85135 14.9255C8.14088 14.9266 7.45269 14.6814 6.90743 14.2329L7.00336 14.1794L10.2325 12.344C10.3129 12.2976 10.3796 12.2314 10.4261 12.1519C10.4726 12.0724 10.4974 11.9824 10.4979 11.8907V7.40757L11.8631 8.18518C11.8768 8.19201 11.8863 8.20487 11.8887 8.21982V11.9347C11.8852 13.5851 10.5274 14.9221 8.85135 14.9255ZM2.32271 12.1803C1.96643 11.5745 1.8385 10.8644 1.96142 10.1748L2.05729 10.2315L5.28968 12.067C5.36966 12.1132 5.46071 12.1375 5.55344 12.1375C5.64617 12.1375 5.73722 12.1132 5.8172 12.067L9.76572 9.82542V11.3775C9.76536 11.3855 9.76315 11.3934 9.75928 11.4005C9.75541 11.4075 9.74996 11.4137 9.74335 11.4184L6.47265 13.2759C5.0192 14.1004 3.16227 13.6101 2.32271 12.1803ZM1.47221 5.25416C1.83099 4.64445 2.39728 4.17941 3.07084 3.94136V7.71921C3.06964 7.81048 3.09333 7.9004 3.13944 7.97959C3.18555 8.05878 3.2524 8.12434 3.33301 8.16942L7.26234 10.4015L5.89713 11.1791C5.88975 11.183 5.88152 11.185 5.87316 11.185C5.86481 11.185 5.85658 11.183 5.8492 11.1791L2.58487 9.32493C1.13429 8.49699 0.636829 6.66991 1.47221 5.23847V5.25416ZM12.688 7.82001L8.7458 5.56585L10.1079 4.79139C10.1153 4.78753 10.1235 4.78552 10.1319 4.78552C10.1403 4.78552 10.1485 4.78753 10.1559 4.79139L13.4202 6.64887C13.9193 6.93245 14.3262 7.34999 14.5934 7.85274C14.8605 8.35549 14.9769 8.9227 14.929 9.48815C14.8811 10.0536 14.6708 10.594 14.3226 11.0461C13.9745 11.4983 13.5029 11.8436 12.963 12.0418V8.26388C12.9602 8.17277 12.9334 8.08393 12.8852 8.00611C12.8369 7.92829 12.769 7.86416 12.688 7.82001ZM14.0468 5.80831L13.9509 5.75157L10.7249 3.90044C10.6444 3.85395 10.5528 3.82944 10.4595 3.82944C10.3663 3.82944 10.2747 3.85395 10.1942 3.90044L6.24879 6.14204V4.58997C6.24798 4.58209 6.24933 4.57413 6.25271 4.56693C6.25608 4.55973 6.26136 4.55356 6.26798 4.54905L9.5323 2.69471C10.0326 2.41092 10.6046 2.27325 11.1815 2.29782C11.7583 2.32239 12.3161 2.50818 12.7896 2.83346C13.2632 3.15874 13.6329 3.61006 13.8555 4.13464C14.0781 4.65921 14.1444 5.23536 14.0467 5.7957L14.0468 5.80831ZM5.50391 8.55982L4.1387 7.78536C4.13188 7.7813 4.12604 7.77581 4.12161 7.76928C4.11719 7.76275 4.11427 7.75534 4.11308 7.74758V4.04216C4.11383 3.47372 4.27891 2.91724 4.58902 2.43778C4.89912 1.95832 5.34143 1.5757 5.86423 1.33465C6.38703 1.09359 6.96872 1.00407 7.54129 1.07655C8.11386 1.14904 8.65364 1.38052 9.09752 1.74394L9.00159 1.79748L5.77245 3.63287C5.69211 3.67931 5.62541 3.74551 5.57889 3.82499C5.53237 3.90447 5.50763 3.99449 5.5071 4.08622L5.50391 8.55982ZM6.24561 6.98567L8.0041 5.9877L9.76572 6.98573V8.98167L8.01048 9.9797L6.24886 8.98167L6.24561 6.98567Z" fill="black"/>
</svg>
