<svg width="11" height="12" viewBox="0 0 11 12" fill="none" xmlns="http://www.w3.org/2000/svg">
<path d="M4.90799 4.09192L4.43999 2.93992H8.00399V4.09192H7.03199V11.0279L5.54399 10.3559V8.50792C5.27199 8.70792 4.77599 9.06792 4.05599 9.58792C3.33599 10.0999 2.81199 10.4759 2.48399 10.7159L1.55999 9.64792C1.94399 9.43192 2.62399 9.02792 3.59999 8.43592C4.57599 7.83592 5.22399 7.44392 5.54399 7.25992V7.23592C4.91199 7.38792 4.21999 7.29992 3.46799 6.97192C2.68399 7.55592 1.87999 8.01192 1.05599 8.33992L-5.85616e-06 7.47592C1.05599 6.97992 1.78399 6.61592 2.18399 6.38392C1.53599 6.05592 1.08799 5.68392 0.839994 5.26792C0.719994 5.07592 0.747994 4.78792 0.923994 4.40392C1.10799 4.01192 1.38399 3.65592 1.75199 3.33592C2.11999 3.00792 2.48399 2.84392 2.84399 2.84392C2.98799 2.84392 3.28799 3.09992 3.74399 3.61192C4.20799 4.12392 4.54799 4.56392 4.76399 4.93192C5.01199 5.36392 4.71199 5.93992 3.86399 6.65992C4.47199 6.77992 5.03199 6.64792 5.54399 6.26392V4.09192H4.90799ZM2.56799 5.91592L2.69999 6.05992C3.75599 5.33192 4.05999 4.72392 3.61199 4.23592C3.38799 3.99592 3.10799 3.95192 2.77199 4.10392C2.44399 4.25592 2.24799 4.50792 2.18399 4.85992C2.12799 5.21192 2.25599 5.56392 2.56799 5.91592ZM6.09562 3.11992L5.15962 3.10792C4.83962 2.81992 4.57962 2.51192 4.37962 2.18392C4.17162 1.84792 4.13562 1.56792 4.27162 1.34392C4.48762 0.991919 4.79562 0.679919 5.19562 0.407919C5.58762 0.13592 5.99562 -8.03471e-05 6.41962 -8.03471e-05C6.53962 -8.03471e-05 6.67562 0.0519197 6.82762 0.15592C6.97162 0.259919 7.13562 0.419919 7.31962 0.635919C7.50362 0.84392 7.67962 1.05592 7.84762 1.27192C8.00762 1.47992 8.21162 1.75192 8.45962 2.08792C8.71562 2.42392 8.93562 2.70792 9.11962 2.93992H10.6556V4.09192H9.73162V11.0279L8.24362 10.3559V4.09192H7.33162V2.93992H8.48362L7.65562 1.97992C7.38362 1.67592 7.11962 1.45192 6.86362 1.30792C6.60762 1.16392 6.38762 1.09992 6.20362 1.11592C6.01962 1.12392 5.85962 1.17192 5.72362 1.25992C5.57962 1.33992 5.47562 1.44392 5.41162 1.57192C5.33962 1.69192 5.31162 1.80392 5.32762 1.90792C5.35162 2.20392 5.60762 2.60792 6.09562 3.11992Z" fill="white"/>
</svg>
